<?xml version="1.0" encoding="UTF-8"?>
<svg width="59px" height="88px" viewBox="0 0 59 88" version="1.1" xmlns="http://www.w3.org/2000/svg" xmlns:xlink="http://www.w3.org/1999/xlink">
    <title>bulb</title>
    <g id="Page-1" stroke="none" stroke-width="1" fill="none" fill-rule="evenodd">
        <g id="bulb" fill="#FFFFFF" fill-rule="nonzero">
            <path d="M47.9415303,6.67267402 C41.1535303,1.07867402 32.2175303,-1.14732598 23.4295303,0.563674022 C11.5985303,2.86667402 2.09653031,12.853674 0.322530312,24.850674 C-1.12446969,34.640674 2.35353031,44.417674 9.62653031,51.005674 C12.9035303,53.973674 14.8805303,58.248674 15.1945303,63.044674 C15.2005303,63.131674 15.2175303,63.215674 15.2365303,63.298674 L15.2365303,78.337674 C15.2365303,79.165674 15.9075303,79.837674 16.7365303,79.837674 L18.2315303,79.837674 C18.8405303,84.196674 22.0445303,87.534674 25.9035303,87.534674 L32.7135303,87.534674 C36.5725303,87.534674 39.7755303,84.196674 40.3845303,79.837674 L41.8795303,79.837674 C42.7075303,79.837674 43.3795303,79.165674 43.3795303,78.337674 L43.3795303,63.058674 C43.3795303,63.055674 43.3805303,63.052674 43.3805303,63.048674 C43.3805303,58.586674 45.4065303,54.277674 49.0865303,50.915674 C55.1485303,45.377674 58.6245305,37.500674 58.6245305,29.305674 C58.6255303,20.517674 54.7315303,12.267674 47.9415303,6.67267402 Z M24.0045303,35.140674 L21.6995303,35.140674 C20.4285303,35.140674 19.3945303,34.106674 19.3945303,32.835674 C19.3945303,31.564674 20.4285303,30.530674 21.6995303,30.530674 C22.9705303,30.530674 24.0045303,31.564674 24.0045303,32.835674 L24.0045303,35.140674 Z M34.6135303,32.835674 C34.6135303,31.564674 35.6475303,30.530674 36.9195303,30.530674 C38.1905303,30.530674 39.2245303,31.564674 39.2245303,32.835674 C39.2245303,34.106674 38.1905303,35.140674 36.9195303,35.140674 L34.6165303,35.140674 L34.6135303,32.835674 Z M33.7105303,64.441674 L40.3805303,64.441674 L40.3805303,76.837674 L39.0075303,76.837674 C39.0045303,76.837674 39.0015303,76.836674 38.9975303,76.836674 C38.9935303,76.836674 38.9915303,76.837674 38.9875303,76.837674 L19.6295303,76.837674 C19.6265303,76.837674 19.6235303,76.836674 19.6195303,76.836674 C19.6155303,76.836674 19.6135303,76.837674 19.6095303,76.837674 L18.2375303,76.837674 L18.2375303,64.441674 L32.6035303,64.441674 M27.0045303,61.441674 L27.0045303,38.140674 L31.6215303,38.140674 L31.6555303,61.441674 L27.0045303,61.441674 Z M32.7135303,84.534674 L25.9035303,84.534674 C23.6655303,84.534674 21.7865303,82.530674 21.2665303,79.837674 L37.3495303,79.837674 C36.8305303,82.530674 34.9515303,84.534674 32.7135303,84.534674 Z M47.0635303,48.701674 C43.1915303,52.238674 40.8995303,56.714674 40.4705303,61.441674 L34.6545303,61.441674 L34.6215303,38.140674 L36.9195303,38.140674 C39.8445303,38.140674 42.2245303,35.760674 42.2245303,32.835674 C42.2245303,29.910674 39.8445303,27.530674 36.9195303,27.530674 C33.9935303,27.530674 31.6135303,29.910674 31.6135303,32.837674 L31.6165303,35.140674 L27.0045303,35.140674 L27.0045303,32.835674 C27.0045303,29.910674 24.6245303,27.530674 21.6995303,27.530674 C18.7745303,27.530674 16.3945303,29.910674 16.3945303,32.835674 C16.3945303,35.760674 18.7745303,38.140674 21.6995303,38.140674 L24.0045303,38.140674 L24.0045303,61.441674 L18.0325303,61.441674 C17.3965303,56.436674 15.1685303,51.976674 11.6395303,48.781674 C5.11153031,42.867674 1.98953031,34.085674 3.28953031,25.288674 C4.88053031,14.528674 13.3975303,5.57267402 24.0015303,3.50767402 C31.9095303,1.96967402 39.9395303,3.96567402 46.0315303,8.98767402 C52.1275303,14.010674 55.6235313,21.416674 55.6235313,29.306674 C55.6255303,36.660674 52.5045303,43.730674 47.0635303,48.701674 Z" id="Shape"></path>
        </g>
    </g>
</svg>