<?xml version="1.0" encoding="UTF-8"?>
<svg width="155px" height="299px" viewBox="0 0 155 299" version="1.1" xmlns="http://www.w3.org/2000/svg" xmlns:xlink="http://www.w3.org/1999/xlink">
    <title>hand_temp_compy</title>
    <g id="Symbols" stroke="none" stroke-width="1" fill="none" fill-rule="evenodd" stroke-linecap="round">
        <g id="hand_temp_compy" transform="translate(1.523219, 1.500000)" stroke="#FF0000" stroke-width="3">
            <path d="M106.976781,158 C103.357128,155.552944 100.523794,154.386277 98.4767815,154.5 C96.4297687,154.613723 93.4297687,156.613723 89.4767815,160.5" id="Line-27"></path>
            <path d="M86.9212259,146.5 C87.6030759,160.144813 89.1215944,168.144813 91.4767815,170.5 C92.4767815,171.5 104.476781,174.5 109.476781,170.5 C113.415378,167.349123 112.470359,159.565951 109.476781,153.5 C107.233501,148.954393 102.333509,144.213455 101.476781,142.5 C100.387613,140.321663 90.0214655,141.168095 80.4767815,136.5 C72.7083939,132.700653 69.3877785,127.615835 68.4767815,126.5 C64.0394824,121.064972 63.7061491,115.398305 67.4767815,109.5" id="Line-24"></path>
            <path d="M73.9767815,126 C79.8341042,124.688721 83.6674375,123.188721 85.4767815,121.5 C87.2861254,119.811279 88.4527921,116.644612 88.9767815,112" id="Line-25"></path>
            <path d="M72.4767815,170.5 C74.7659248,167.428169 76.4325915,165.428169 77.4767815,164.5 C78.5209714,163.571831 80.5209714,162.905164 83.4767815,162.5" id="Line-26"></path>
            <path d="M60.9767815,236 C67.1550856,236.472431 71.6550856,236.639098 74.4767815,236.5 C84.5122277,236.005293 93.5533043,235.5 98.4767815,235.5 C105.476781,235.5 113.310115,235.666667 121.976781,236" id="Line-22"></path>
            <path d="M133.476781,289.5 C132.951345,272.471902 132.951345,260.805235 133.476781,254.5 C135.476781,230.5 142.742631,217.20535 145.476781,202.5 C151.463893,170.298935 152.502644,151.931035 150.476781,149.5 C132.610553,128.060526 124.476781,116.5 117.476781,108.5 C116.280388,107.132694 97.4767815,110.5 82.4767815,110.5 C79.9766155,110.5 75.1432821,110 67.9767815,109" id="Line-21"></path>
            <path d="M49.9767815,294 C74.2292636,295.710724 93.7292636,296.210724 108.476781,295.5 C123.224299,294.789276 131.390966,292.955943 132.976781,290" id="Line-20"></path>
            <path d="M7.47678148,84.5 C9.63911367,82.8513003 11.3057803,81.8513003 12.4767815,81.5 C13.6477826,81.1486997 15.3144493,80.8153663 17.4767815,80.5" id="Line-19"></path>
            <path d="M38.9767815,162 C43.5286348,158.556902 47.0286348,156.390235 49.4767815,155.5 C51.9249282,154.609765 55.7582615,154.109765 60.9767815,154" id="Line-16"></path>
            <path d="M26.9767815,128 C31.638249,124.446871 34.8049156,122.280204 36.4767815,121.5 C38.1486473,120.719796 39.9819807,120.553129 41.9767815,121" id="Line-17"></path>
            <path d="M17.9767815,106 C20.5617564,103.61385 22.4848333,102.042422 23.7460122,101.285714 C25.0071912,100.529007 26.4174476,100.100435 27.9767815,100" id="Line-18"></path>
            <path d="M49.9767815,290 C50.7721303,252.386046 49.6054636,228.886046 46.4767815,219.5 C39.3681557,198.174123 36.2373488,185.986755 33.4767815,171.5 C31.9656033,163.569721 31.2053933,152.685835 28.4767815,144.5 C19.4767815,117.5 6.47678148,96.5 1.47678148,77.5 C-0.782741033,68.9138145 -0.4494077,62.5804811 2.47678148,58.5" id="Line-15"></path>
            <path d="M77.4767815,106.5 C78.1434481,99.8333333 81.4767815,95.1666667 87.4767815,92.5 C93.4767815,89.8333333 100.643448,91 108.976781,96" id="Line-13"></path>
            <path d="M50.4767815,116.5 C50.2863053,111.298493 52.2863053,106.96516 56.4767815,103.5 C60.6672577,100.03484 65.8339243,100.689716 71.9767815,105.464628" id="Line-13"></path>
            <path d="M145.976781,37 C141.809098,35.1225929 138.642431,33.9559263 136.476781,33.5 C134.311132,33.0440737 131.144465,32.8774071 126.976781,33" id="Line-11" stroke-linejoin="round"></path>
            <path d="M142.660889,67.5101376 C140.046078,65.8664674 137.413364,64.8751747 134.762747,64.5362596 C132.11213,64.1973445 129.411511,63.8553038 126.660889,63.5101376" id="Line-11" stroke-linejoin="round" transform="translate(134.660889, 65.510138) rotate(-7.000000) translate(-134.660889, -65.510138) "></path>
            <path d="M141.476781,106 C137.798664,104.488497 134.035028,103.321831 130.185872,102.5 C126.336717,101.678169 122.433687,101.678169 118.476781,102.5" id="Line-12"></path>
            <path d="M2.97678148,58 C7.97678148,55.6666667 11.4767815,56.8333333 13.4767815,61.5 C16.7552804,69.1498308 22.6715741,82.4913211 30.4767815,95.5 C33.4767815,100.5 39.9149105,111.684692 44.4767815,116.5 C59.5898216,132.452654 64.5506459,153.666711 72.4767815,172.5 C73.990867,176.097618 75.6725669,178.096388 78.4767815,180.5 C83.1434481,184.5 88.1434481,183.166667 93.4767815,176.5" id="Line-14"></path>
            <path d="M112.976781,105 C117.310115,72 119.476781,46.5 119.476781,28.5 C119.476781,10.5 123.310115,1 130.976781,0" id="Line-10"></path>
            <path d="M145.476781,135.5 C147.693061,78.9118924 147.693061,42.2452258 145.476781,25.5 C143.260502,8.75477422 138.427168,0.254774225 130.976781,5.68434189e-14" id="Line-9"></path>
            <path d="M131.476781,216.5 C122.994656,216.623028 116.661323,215.289694 112.476781,212.5 C109.490079,210.508865 104.46414,206.931826 100.476781,201.5 C99.410675,200.047684 98.0773417,197.381017 96.4767815,193.5" id="Line-23"></path>
        </g>
    </g>
</svg>