<!-- icon666.com - MILLIONS vector ICONS FREE --><svg clip-rule="evenodd" fill-rule="evenodd" image-rendering="optimizeQuality" shape-rendering="geometricPrecision" text-rendering="geometricPrecision" viewBox="0 0 1706.66 1706.66" xmlns="http://www.w3.org/2000/svg" xmlns:xodm="http://www.corel.com/coreldraw/odm/2003"><g id="Layer_x0020_1"><path d="m496.81 753.27c-11.04 0-20-8.96-20-20 0-207.62 168.9-376.51 376.52-376.51 26.33 0 26.32 40 0 40-185.56 0-336.51 150.95-336.51 336.51 0 11.06-8.96 20-20 20z"></path><path d="m1112.81 1405.14h-518.96c-20.34 0-36.88-16.54-36.88-36.88v-88.61c0-20.34 16.54-36.88 36.88-36.88h518.95c20.34 0 36.88 16.54 36.88 36.88v88.61c.01 20.31-16.53 36.87-36.87 36.87zm-515.84-40.02h512.7v-82.35h-512.7v82.34z"></path><path d="m1085.39 1527.48h-464.11c-20.34 0-36.88-16.54-36.88-36.88v-105.47c0-11.04 8.96-20 20-20h497.87c11.04 0 20 8.97 20 20v105.47c0 20.33-16.54 36.88-36.88 36.88zm-460.98-40.02h457.85v-82.33h-457.85z"></path><path d="m853.33 1706.78c-100.6 0-182.44-81.86-182.44-182.46 0-12.44-2.91-36.87 20-36.87h324.88c22.92 0 20 24.44 20 36.87.02 100.61-81.85 182.46-182.44 182.46zm-142.39-179.3c1.68 77.09 64.91 139.29 142.39 139.29 77.5 0 140.73-62.2 142.41-139.29z"></path><path d="m1011.54 809.17h-316.44c-26.33 0-26.33-40 0-40h316.44c26.33 0 26.33 40 0 40z"></path><path d="m853.33 168.46c-11.04 0-20-8.96-20-20v-128.59c0-26.33 40-26.33 40 0v128.6c0 11.05-8.96 19.99-20 19.99z"></path><path d="m1173.68 254.31c-15.17 0-25.08-16.54-17.3-30l64.3-111.36c13.18-22.79 47.81-2.81 34.64 20l-64.3 111.37c-3.7 6.42-10.43 10-17.33 10z"></path><path d="m1408.2 488.83c-20.31 0-27.7-27.13-10.02-37.32l111.38-64.3c22.78-13.16 42.82 21.48 20 34.64-17.05 9.83-109.76 66.99-121.36 66.99z"></path><path d="m1622.63 809.17h-128.61c-26.33 0-26.32-40 0-40h128.61c26.33 0 26.33 40 0 40z"></path><path d="m1519.55 1193.83c-11.59 0-104.31-57.16-121.36-66.98-22.82-13.16-2.78-47.8 20-34.64l111.38 64.3c17.71 10.22 10.26 37.32-10.02 37.32z"></path><path d="m187.12 1193.83c-20.31 0-27.73-27.12-10.04-37.34l111.37-64.3c22.83-13.16 42.79 21.48 20 34.64-16.97 9.8-109.83 67-121.33 67z"></path><path d="m212.62 809.17h-128.59c-26.33 0-26.33-40 0-40h128.59c26.32 0 26.35 40 0 40z"></path><path d="m298.44 488.83c-11.58 0-104.33-57.16-121.35-66.99-22.77-13.14-2.84-47.83 20-34.64l111.37 64.3c17.67 10.2 10.31 37.32-10.02 37.32z"></path><path d="m532.98 254.31c-6.92 0-13.64-3.58-17.35-10.02l-64.29-111.37c-13.17-22.81 21.47-42.8 34.64-20l64.29 111.36c7.77 13.47-2.16 30.02-17.29 30.02z"></path><path d="m853.33 396.76c-185.56 0-336.51 150.95-336.51 336.51 0 26.34-40.01 26.32-40.01 0 0-207.62 168.9-376.51 376.52-376.51 26.33 0 26.32 40 0 40zm0-84.39c-232.08 0-420.88 188.8-420.88 420.9 0 283.98 170.85 210.07 204.48 509.49l104.64.01v-433.6h-46.45c-26.33 0-26.33-40 0-40h316.44c26.33 0 26.33 40 0 40h-46.44v433.59h104.62c33.65-299.44 204.48-225.48 204.48-509.49 0-232.09-188.8-420.9-420.88-420.9z" fill="#ffb800"></path><path d="m925.08 809.17h-143.53v433.59h143.53z" fill="#ff9500"></path><path d="m1082.26 1405.14-457.85-.01v82.33h457.85z" fill="#b3b3b3"></path><path d="m995.74 1527.48h-284.8c1.68 77.09 64.91 139.29 142.39 139.29 77.5 0 140.73-62.2 142.41-139.29z" fill="#a0a0a0"></path><path d="m604.4 1365.12h505.27v-82.34h-512.7v82.34z" fill="#a0a0a0"></path><path d="m945.09 1282.78h-183.52c-11.04 0-20-8.97-20-20v-473.61c0-11.04 8.96-20 20-20h183.54c11.04 0 20 8.96 20 20v473.59c0 11.06-8.97 20.02-20.02 20.02zm-163.54-40.02h143.53v-433.59h-143.53z"></path><path d="m1087.83 1282.78h-469.01c-10.37 0-19.02-7.92-19.94-18.26-26.81-303.08-206.46-224.58-206.46-531.25 0-254.14 206.76-460.9 460.89-460.9s460.9 206.76 460.9 460.9c0 306.67-179.91 228.5-206.46 531.25-.91 10.33-9.56 18.26-19.92 18.26zm-450.91-40.02h432.81c33.65-299.44 204.48-225.48 204.48-509.49 0-232.09-188.8-420.9-420.88-420.9s-420.88 188.8-420.88 420.9c0 283.98 170.85 210.07 204.48 509.49z"></path></g></svg>