<?xml version="1.0" encoding="UTF-8"?>
<svg width="518px" height="518px" viewBox="0 0 518 518" version="1.1" xmlns="http://www.w3.org/2000/svg" xmlns:xlink="http://www.w3.org/1999/xlink">
    <title>sun-svgrepo-com</title>
    <g id="Page-1" stroke="none" stroke-width="1" fill="none" fill-rule="evenodd">
        <g id="sun-svgrepo-com" fill="#FEB64D" fill-rule="nonzero">
            <path d="M259,100 C170.249014,100 98,172.249014 98,261 C98,349.750986 170.249014,422 259,422 C347.750986,422 420,349.750986 420,261 C420,172.143233 347.750986,100 259,100 Z M259,378.735217 C194.049934,378.735217 141.159001,325.844284 141.159001,260.894218 C141.159001,195.944152 194.049934,143.053219 259,143.053219 C323.950066,143.053219 376.840999,195.944152 376.840999,260.894218 C376.840999,325.844284 323.950066,378.735217 259,378.735217 Z" id="Shape"></path>
            <path d="M259.5,67 C271.409314,67 281,57.4435737 281,45.5768025 L281,21.4231975 C281,9.55642633 271.409314,0 259.5,0 C247.590686,0 238,9.55642633 238,21.4231975 L238,45.5768025 C238,57.4435737 247.590686,67 259.5,67 L259.5,67 Z" id="Path"></path>
            <path d="M259.5,451 C247.590686,451 238,460.571429 238,472.456829 L238,496.543171 C238,508.428571 247.590686,518 259.5,518 C271.409314,518 281,508.428571 281,496.543171 L281,472.456829 C281,460.676609 271.409314,451 259.5,451 L259.5,451 Z" id="Path"></path>
            <path d="M496.576803,238 L472.423197,238 C460.556426,238 451,247.590686 451,259.5 C451,271.409314 460.556426,281 472.423197,281 L496.576803,281 C508.443574,281 518,271.409314 518,259.5 C518,247.590686 508.443574,238 496.576803,238 L496.576803,238 Z" id="Path"></path>
            <path d="M45.6477729,238 L21.4565569,238 C9.57130723,238 0,247.590686 0,259.5 C0,271.409314 9.57130723,281 21.4565569,281 L45.5425937,281 C57.4278434,281 66.9991506,271.409314 66.9991506,259.5 C67.1043298,247.590686 57.4278434,238 45.6477729,238 L45.6477729,238 Z" id="Path"></path>
            <path d="M411.432574,76.3047285 L394.304729,93.3274956 C385.898424,101.7338 385.898424,115.288967 394.304729,123.695271 C402.711033,132.101576 416.2662,132.101576 424.672504,123.695271 L441.695271,106.672504 C450.101576,98.2661996 450.101576,84.7110333 441.695271,76.3047285 C433.288967,67.8984238 419.7338,67.8984238 411.432574,76.3047285 Z" id="Path"></path>
            <path d="M93.3274956,394.269497 L76.3047285,411.303433 C67.8984238,419.715254 67.8984238,433.279314 76.3047285,441.691135 C84.7110333,450.102955 98.2661996,450.102955 106.672504,441.691135 L123.695271,424.657198 C132.101576,416.245378 132.101576,402.681317 123.695271,394.269497 C115.288967,385.857676 101.7338,385.962824 93.3274956,394.269497 Z" id="Path"></path>
            <path d="M424.672504,394.304729 C416.2662,385.898424 402.711033,385.898424 394.304729,394.304729 C385.898424,402.711033 385.898424,416.2662 394.304729,424.672504 L411.327496,441.695271 C419.7338,450.101576 433.288967,450.101576 441.695271,441.695271 C450.101576,433.288967 450.101576,419.7338 441.695271,411.327496 L424.672504,394.304729 Z" id="Path"></path>
            <path d="M93.3274956,123.695271 C101.7338,132.101576 115.288967,132.101576 123.695271,123.695271 C132.101576,115.288967 132.101576,101.7338 123.695271,93.3274956 L106.672504,76.3047285 C98.2661996,67.8984238 84.7110333,67.8984238 76.3047285,76.3047285 C67.8984238,84.7110333 67.8984238,98.2661996 76.3047285,106.672504 L93.3274956,123.695271 L93.3274956,123.695271 Z" id="Path"></path>
        </g>
    </g>
</svg>