<?xml version="1.0" encoding="UTF-8"?>
<svg width="601px" height="668px" viewBox="0 0 601 668" version="1.1" xmlns="http://www.w3.org/2000/svg" xmlns:xlink="http://www.w3.org/1999/xlink">
    <title>Shape</title>
    <g id="Symbols" stroke="none" stroke-width="1" fill="none" fill-rule="evenodd" stroke-linecap="round" stroke-linejoin="round">
        <g id="trash-xmark-alt-svgrepo-com" transform="translate(34.000000, 34.000000)" stroke="#FC2847" stroke-width="66.6666667">
            <path d="M200,300 L333.333333,433.333333 M333.333333,300 L200,433.333333 M466.666667,100 L439.97,500.43 C437.633333,535.5 436.463333,553.036667 428.89,566.333333 C422.22,578.04 412.16,587.45 400.036667,593.326667 C386.266667,600 368.69,600 333.54,600 L199.792333,600 C164.642333,600 147.067333,600 133.296333,593.326667 C121.172333,587.45 111.113,578.04 104.444,566.333333 C96.869,553.036667 95.7,535.5 93.362,500.43 L66.6666667,100 M0,100 L533.333333,100 M400,100 L390.98,72.9356667 C382.236667,46.7083333 377.863333,33.5946667 369.756667,23.8993333 C362.596667,15.3376667 353.403333,8.71066667 343.016667,4.626 C331.253333,0 317.433333,0 289.786667,0 L243.546667,0 C215.9,0 202.08,0 190.317,4.626 C179.930667,8.71066667 170.736,15.3376667 163.576333,23.8993333 C155.468333,33.5946667 151.097333,46.7083333 142.354667,72.9356667 L133.333333,100" id="Shape"></path>
        </g>
    </g>
</svg>